<svg width="45" height="45" viewBox="0 0 45 45" fill="none" xmlns="http://www.w3.org/2000/svg">
<g clip-path="url(#clip0_12_2)">
<path d="M33.75 11.25H30C30 7.10625 26.6437 3.75 22.5 3.75C18.3562 3.75 15 7.10625 15 11.25H11.25C9.1875 11.25 7.5 12.9375 7.5 15V37.5C7.5 39.5625 9.1875 41.25 11.25 41.25H33.75C35.8125 41.25 37.5 39.5625 37.5 37.5V15C37.5 12.9375 35.8125 11.25 33.75 11.25ZM18.75 18.75C18.75 19.7812 17.9062 20.625 16.875 20.625C15.8438 20.625 15 19.7812 15 18.75V15H18.75V18.75ZM22.5 7.5C24.5625 7.5 26.25 9.1875 26.25 11.25H18.75C18.75 9.1875 20.4375 7.5 22.5 7.5ZM30 18.75C30 19.7812 29.1562 20.625 28.125 20.625C27.0938 20.625 26.25 19.7812 26.25 18.75V15H30V18.75Z" fill="white"/>
</g>
<defs>
<clipPath id="clip0_12_2">
<rect width="45" height="45" fill="white"/>
</clipPath>
</defs>
</svg>
